<?xml version="1.0" encoding="UTF-8" standalone="no"?>
<svg xmlns="http://www.w3.org/2000/svg" viewBox="0 0 32 32" version="1.1">
	<text style="font-size:2px;font-family:Monaco;letter-spacing:0.60000002;fill:#808080" font-size="2px" y="17" x="10">LOADING
		<animate repeatCount="indefinite" dur="1.8s" values="0;1;0" attributeName="opacity"/>
	</text>
	<circle cx="16" cy="16" r="14.825" style="fill:none;stroke:#373a42;stroke-width:0.25px"/>
	<circle cx="16" cy="16" r="13" style="fill:none;stroke:#373a42;stroke-width:0.25px"/>
	<path style="fill:#2aa198;stroke:#2aa198;stroke-width:0.6027;stroke-miterlimit:10" d="M 9.4258229,29.256372 C 2.1163182,25.6314 -0.88134424,16.735328 2.7436278,9.4258229 L 2.5617637,9.3356317 C -1.112969,16.745475 1.9257882,25.763504 9.3356317,29.438236 16.745475,33.112969 25.763504,30.074212 29.438236,22.664368 l -0.181864,-0.09019 C 25.6314,29.883682 16.735328,32.881344 9.4258229,29.256372 Z" stroke-miterlimit="10">
		<animateTransform repeatCount="indefinite" dur="2s" keyTimes="0;1" keySplines="0.4, 0, 0.2, 1" calcMode="spline" to="360 16 16" from="0 16 16" type="rotate" attributeName="transform" />
	</path>
	<path style="fill:#859900;stroke:#859900;stroke-width:0.2027;stroke-miterlimit:10" d="M 25.399174,7.1324402 C 30.288615,12.315006 30.050125,20.509732 24.86756,25.399174 l 0.139306,0.147657 C 30.270898,20.580531 30.513132,12.257166 25.546831,6.993134 20.580531,1.7291021 12.257166,1.4868684 6.993134,6.4531686 L 7.1324402,6.6008262 C 12.315006,1.7113847 20.509732,1.9498746 25.399174,7.1324402 Z" stroke-miterlimit="10">
		<animateTransform repeatCount="indefinite" dur="1.8s" to="360 16 16" from="0 16 16" type="rotate" attributeName="transform"/>
	</path>
</svg>